<svg height="50" width="50" xmlns="http://www.w3.org/2000/svg" viewBox="0 0 400.775 400.775" xml:space="preserve"><path d="m366.56 189.884-40.55-49.247a6.028 6.028 0 0 0-4.998-2.175 5.996 5.996 0 0 0-4.696 2.768l-13.287 20.888a7.062 7.062 0 0 1-5.985 3.28 7.04 7.04 0 0 1-3.736-1.077 7.04 7.04 0 0 1-3.329-6.004c0-.519.065-1.073.187-1.608l29.811-128.064a5.999 5.999 0 0 0-4.644-7.239L257.389 9.581a6 6 0 0 0-6.958 4.193l-10.714 36.587c-.711 2.432-2.968 4.13-5.487 4.13a5.771 5.771 0 0 1-1.928-.337 5.706 5.706 0 0 1-3.803-5.383c0-.11-.003-.216 0-.292l.01-.119 2.921-41.943A6.003 6.003 0 0 0 225.445 0h-46.118a6 6 0 0 0-5.901 4.917l-8.963 48.814a5.135 5.135 0 0 1-5.049 4.211c-2.84 0-5.151-2.295-5.151-5.116 0-.271.027-.566.081-.884l7.249-42.57a5.998 5.998 0 0 0-2.062-5.606 5.996 5.996 0 0 0-5.881-1.048l-46.118 16.555a5.997 5.997 0 0 0-3.918 4.844L98.67 60.708a4.517 4.517 0 0 1-3.416 3.775 4.764 4.764 0 0 1-1.067.129 4.52 4.52 0 0 1-3.189-1.348 4.462 4.462 0 0 1-1.289-3.212l.308-25.837a5.999 5.999 0 0 0-8.683-5.438L47.752 45.568a6 6 0 0 0-3.294 4.842l-10.3 117.291c-3.427 38.978-.125 77.94 9.812 115.807a124.08 124.08 0 0 1 4.071 31.514c0 14.024-2.364 27.869-7.029 41.152l-2.152 6.138a6 6 0 0 0 2.348 6.987c1.94 1.285 48.248 31.477 112.457 31.477 32.194 0 63.247-7.7 92.296-22.884a6.001 6.001 0 0 0 3.221-5.317c0-35.773 19.329-68.957 50.448-86.604a116.816 116.816 0 0 0 24.253-18.309 116.58 116.58 0 0 0 18.712-23.959 520.09 520.09 0 0 0 24.789-47.507 6.002 6.002 0 0 0-.824-6.312zM77.901 43.91l-.19 16c-.053 4.448 1.635 8.634 4.752 11.789 3.085 3.123 7.359 4.913 11.724 4.913a16.77 16.77 0 0 0 3.794-.443c6.621-1.553 11.677-7.125 12.581-13.859l4.455-32.974 33.021-11.853-5.528 32.465a17.269 17.269 0 0 0-.248 2.879c0 9.438 7.694 17.116 17.151 17.116a17.133 17.133 0 0 0 16.852-14.045L184.325 12h34.687l-2.471 35.484a15.53 15.53 0 0 0-.042 1.287c0 7.51 4.754 14.224 11.815 16.701a17.677 17.677 0 0 0 5.915 1.02c7.813 0 14.807-5.247 17.004-12.759l9.162-31.29 46.493 9.488-26.613 114.328c-58.193-30.904-119.428-28.418-161.262-20.572-32.44 6.085-57.924 15.984-71.031 21.758l8.135-92.643L77.901 43.91zm159.342 324.962c-26.402 13.209-54.502 19.903-83.578 19.903-50.146 0-89.612-20.083-101.866-27.099l.536-1.529a135.88 135.88 0 0 0 7.706-45.125c0-11.66-1.502-23.289-4.465-34.562-9.586-36.525-12.77-74.109-9.464-111.708l.662-7.537c8.847-4.214 37.3-16.81 74.81-23.8 26.447-4.929 52.161-6.144 76.419-3.612 28.852 3.012 55.736 11.382 79.986 24.867.117 6.482 3.441 12.38 8.957 15.828.564.353 1.148.664 1.742.954-31.796 34.598-46.093 82.465-37.645 129.489l1.896 10.55c-9.514 15.967-15.059 34.289-15.696 53.381zm95.013-131.264a104.619 104.619 0 0 1-16.788 21.498 104.808 104.808 0 0 1-21.762 16.428 111.24 111.24 0 0 0-31.041 26.129c-7.727-45.281 8.116-91.867 40.729-123.691 7-6.831 18.608-23.324 18.608-23.324l32.898 39.954a507.691 507.691 0 0 1-22.644 43.006z"/><path d="M74.872 124.821c10.916 0 19.796-8.88 19.796-19.796s-8.88-19.796-19.796-19.796-19.796 8.88-19.796 19.796 8.88 19.796 19.796 19.796zm0-27.592c4.299 0 7.796 3.497 7.796 7.796s-3.497 7.796-7.796 7.796-7.796-3.497-7.796-7.796 3.497-7.796 7.796-7.796zM128.291 111.692c10.916 0 19.796-8.88 19.796-19.795 0-10.916-8.88-19.796-19.796-19.796s-19.796 8.88-19.796 19.796c0 10.915 8.881 19.795 19.796 19.795zm0-27.591c4.299 0 7.796 3.497 7.796 7.796 0 4.298-3.497 7.795-7.796 7.795s-7.796-3.497-7.796-7.795c0-4.299 3.497-7.796 7.796-7.796zM194.511 108.539c10.915 0 19.796-8.88 19.796-19.795 0-10.916-8.881-19.796-19.796-19.796-10.916 0-19.796 8.88-19.796 19.796 0 10.914 8.88 19.795 19.796 19.795zm0-27.592c4.299 0 7.796 3.497 7.796 7.796 0 4.298-3.497 7.795-7.796 7.795s-7.796-3.497-7.796-7.795c0-4.299 3.497-7.796 7.796-7.796zM254.424 123.517c10.915 0 19.796-8.88 19.796-19.796s-8.881-19.796-19.796-19.796-19.796 8.88-19.796 19.796 8.881 19.796 19.796 19.796zm0-27.592c4.299 0 7.796 3.497 7.796 7.796s-3.497 7.796-7.796 7.796-7.796-3.497-7.796-7.796 3.497-7.796 7.796-7.796zM217.409 275.95l-1.521-.186c-.597-15.321-6.659-29.706-17.41-40.986-12.03-12.62-28.262-19.569-45.707-19.569a63.205 63.205 0 0 0-41.169 15.26c-10.689 9.179-18.073 21.831-20.775 35.547-.177.84-12.028 78.452-12.028 78.452a6 6 0 0 0 3.339 6.314c1.827.875 35.337 16.62 78.991 16.62 13.693 0 28.39-1.551 43.412-5.595a6 6 0 0 0 4.437-5.577c.218-6.034.882-14.998 2.021-27.277a27.2 27.2 0 0 0 3.239.197c6.008 0 11.794-2.014 16.571-5.819 5.646-4.497 9.169-10.927 9.92-18.106 1.502-14.389-8.958-27.522-23.32-29.275zm-97.989-36.378a51.21 51.21 0 0 1 33.351-12.363c14.131 0 27.278 5.629 37.021 15.849 8.25 8.654 13.087 19.562 13.99 31.228l-99.532-12.148c2.915-8.695 8.165-16.551 15.17-22.566zM91.36 341.688l4.089-26.839 103.631 12.652c-.925 9.949-1.548 17.816-1.884 23.787-47.813 11.306-92.47-4.204-105.836-9.6zm137.431-37.71c-.413 3.952-2.353 7.492-5.461 9.967s-6.994 3.571-10.936 3.093L97.257 302.981l4.428-29.067 114.271 13.948c7.905.965 13.663 8.194 12.835 16.116z"/></svg>